Coordinates
version=1
nRows=10
nColumns=40
inDegrees=yes

Units are S.I. units (second, meters, Newtons, ...)
Angles are in degrees.

endheader
time	pelvis_tilt	pelvis_list	pelvis_rotation	pelvis_tx	pelvis_ty	pelvis_tz	hip_flexion_r	hip_adduction_r	hip_rotation_r	knee_angle_r	knee_angle_r_beta	ankle_angle_r	subtalar_angle_r	mtp_angle_r	hip_flexion_l	hip_adduction_l	hip_rotation_l	knee_angle_l	knee_angle_l_beta	ankle_angle_l	subtalar_angle_l	mtp_angle_l	lumbar_extension	lumbar_bending	lumbar_rotation	arm_flex_r	arm_add_r	arm_rot_r	elbow_flex_r	pro_sup_r	wrist_flex_r	wrist_dev_r	arm_flex_l	arm_add_l	arm_rot_l	elbow_flex_l	pro_sup_l	wrist_flex_l	wrist_dev_l
     22.08500000	     -2.89948728	     -5.92605651	     -1.78278499	      1.08875991	      0.93467461	      0.39206693	     29.06695475	     -4.72618205	     -8.17459301	     42.26348040	     42.26348040	      1.42814300	    -10.78640729	     -1.52207073	     12.73077955	     -6.04920781	     -8.32901731	     22.82304105	     22.82304105	     15.28941002	    -11.04994328	      1.50563224	    -11.53427471	      4.29280458	      0.25788626	     -1.83836939	    -17.03688311	     -7.73289861	     28.24005421	     47.04736963	      0.00000000	      0.00000000	     19.45366399	    -18.14076366	      7.00157696	     45.00394764	     45.68653057	      0.00000000	      0.00000000
     22.09857143	     -2.95164506	     -5.87873925	     -2.14924162	      1.08768912	      0.93484150	      0.39200825	     28.83095819	     -4.51699504	     -8.54040850	     38.09472138	     38.09472138	      1.13243823	     -9.91211080	     -1.14386182	     12.19131271	     -6.03480397	     -8.87178341	     22.43174898	     22.43174898	     15.42274922	    -10.66657549	      1.17856743	    -11.77390444	      4.23044389	      0.22607619	     -2.71061393	    -17.35645755	     -8.34564414	     28.58656271	     47.05707143	      0.00000000	      0.00000000	     20.03303011	    -18.38140827	      6.81319501	     45.78566461	     45.73208477	      0.00000000	      0.00000000
     22.11214286	     -3.30468754	     -5.80087710	     -2.48802350	      1.08652323	      0.93435254	      0.39218267	     28.86865555	     -4.30521410	     -8.97986064	     33.88360301	     33.88360301	      0.74310122	     -8.79574321	     -0.57349653	     12.03813092	     -5.98742572	     -9.27673467	     22.10530297	     22.10530297	     15.56054735	    -10.51501831	      0.97763257	    -11.52024620	      4.06436396	     -0.01586894	     -3.41886568	    -17.47607964	     -8.70265959	     28.76799800	     47.06158829	      0.00000000	      0.00000000	     20.48252949	    -18.63681322	      6.69289597	     46.24494175	     45.76025100	      0.00000000	      0.00000000
     22.12571429	     -3.36050884	     -5.70809318	     -2.81110071	      1.08557204	      0.93415344	      0.39244400	     28.42153392	     -4.11178905	     -9.57911905	     29.52578978	     29.52578978	      0.29659528	     -6.97664531	     -0.26833911	     11.57375536	     -5.94567455	     -9.79209216	     21.84828548	     21.84828548	     15.72130083	    -10.17990384	      0.56484259	    -11.69946987	      3.89650286	     -0.03478314	     -4.23609964	    -17.58104068	     -9.44414111	     29.41812591	     47.06438481	      0.00000000	      0.00000000	     20.99394261	    -18.85537153	      6.50284442	     46.99954880	     45.80660155	      0.00000000	      0.00000000
     22.13928571	     -3.65330668	     -5.53713646	     -3.07327623	      1.08465779	      0.93347113	      0.39273423	     28.17556757	     -3.92329521	    -10.07036490	     25.23540332	     25.23540332	     -0.21971758	     -5.14501670	      0.35321925	     11.41838299	     -5.79581394	    -10.12561108	     21.63912572	     21.63912572	     15.87229450	    -10.03457724	      0.29976361	    -11.52634854	      3.67887841	     -0.22468166	     -4.92760669	    -17.63393596	     -9.91888441	     29.77500130	     47.06663615	      0.00000000	      0.00000000	     21.35892686	    -18.98075960	      6.40049998	     47.44242445	     45.83435889	      0.00000000	      0.00000000
     22.15285714	     -3.84838432	     -5.34225321	     -3.32098496	      1.08394098	      0.93278356	      0.39318021	     27.77147901	     -3.74047721	    -10.60571444	     21.10860592	     21.10860592	     -0.70535386	     -2.84383592	      1.04862340	     11.15487942	     -5.62791045	    -10.45529168	     21.45189940	     21.45189940	     16.05782418	     -9.87622045	      0.02862617	    -11.45322812	      3.42533313	     -0.32809596	     -5.54473446	    -17.59811974	    -10.37086660	     30.16336107	     47.06651247	      0.00000000	      0.00000000	     21.73259477	    -19.07346948	      6.29170074	     47.86424840	     45.86204563	      0.00000000	      0.00000000
     22.16642857	     -3.89673298	     -5.05591562	     -3.53091721	      1.08349481	      0.93215795	      0.39364490	     27.24014648	     -3.76097839	    -11.58926187	     17.40784597	     17.40784597	     -0.98567302	      0.54605881	      1.86766819	     10.70533771	     -5.36849002	    -10.90267071	     21.24198811	     21.24198811	     16.22499206	     -9.56764654	     -0.46804332	    -11.56563622	      3.05653623	     -0.24529508	     -6.45276851	    -17.43197635	    -11.56697111	     31.33193463	     47.06342925	      0.00000000	      0.00000000	     22.14351450	    -19.04210706	      6.08331257	     48.44171542	     45.91771325	      0.00000000	      0.00000000
     22.18000000	     -4.12883946	     -4.85165552	     -3.70801436	      1.08309071	      0.93125136	      0.39441086	     26.89407019	     -3.51105133	    -11.84427948	     14.01055071	     14.01055071	     -1.47627550	      2.71087022	      2.90624558	     10.50208257	     -5.18528894	    -11.04289879	     21.10391868	     21.10391868	     16.42756517	     -9.54194462	     -0.66541019	    -11.36611297	      2.78131336	     -0.33169043	     -6.91430343	    -17.26038852	    -11.93766273	     31.62161163	     47.06162633	      0.00000000	      0.00000000	     22.39675005	    -19.01283776	      6.02788916	     48.63287321	     45.93685538	      0.00000000	      0.00000000
     22.19357143	     -4.16695725	     -4.59178272	     -3.86299343	      1.08291130	      0.93064513	      0.39501913	     26.57699262	     -3.53831072	    -12.74864907	     11.64346219	     11.64346219	     -0.80785882	      5.98746595	      6.54206393	     10.02064702	     -4.90960838	    -11.27940853	     20.84008873	     20.84008873	     16.47526014	     -9.54280811	     -1.22882664	    -11.47375899	      2.54158271	      0.08609998	     -8.10840629	    -16.75733790	    -14.77030116	     33.52091230	     47.05251920	      0.00000000	      0.00000000	     23.04520554	    -18.54865007	      5.82549364	     48.50536552	     46.04878143	      0.00000000	      0.00000000
     22.20714286	     -4.22505989	     -4.37482686	     -3.97612387	      1.08294295	      0.92996824	      0.39591966	     26.16746498	     -3.41203951	    -13.10653906	      9.47939406	      9.47939406	     -1.16930974	      7.99179345	      7.29922805	      9.59419945	     -4.70881032	    -11.44624206	     20.68129791	     20.68129791	     16.74073069	     -9.43728023	     -1.34604123	    -11.42989712	      2.27753613	      0.04900756	     -8.27003425	    -16.54513466	    -14.92843555	     33.52557856	     47.04342883	      0.00000000	      0.00000000	     23.22733665	    -18.44647858	      5.82725128	     48.53982106	     46.06415292	      0.00000000	      0.00000000
